<?xml version="1.0" encoding="UTF-8" standalone="no"?>
<!-- Created with Inkscape (http://www.inkscape.org/) -->

<svg
   width="77.628113mm"
   height="120.07052mm"
   viewBox="0 0 77.628113 120.07052"
   version="1.1"
   id="svg1"
   xml:space="preserve"
   xmlns="http://www.w3.org/2000/svg"
   xmlns:svg="http://www.w3.org/2000/svg"><defs
     id="defs1"><clipPath
       clipPathUnits="userSpaceOnUse"
       id="clipPath16"><path
         fill="#231f20"
         d="m 109.96292,115.42633 c -15.22527,0 -27.569545,12.34427 -27.569545,27.56956 0,5.99523 1.965478,11.4965 5.232471,16.00182 0.05859,0.10791 0.06779,0.22859 0.134403,0.33198 l 18.379701,27.56956 c 0.85235,1.27854 2.28827,2.04589 3.82297,2.04589 1.5347,0 2.97062,-0.76735 3.82299,-2.04589 l 18.3797,-27.56956 c 0.0678,-0.10345 0.0758,-0.224 0.13426,-0.33198 3.267,-4.50532 5.23248,-10.00659 5.23248,-16.00182 0,-15.22529 -12.34427,-27.56956 -27.56956,-27.56956 z m 0,36.75939 c -5.0751,0 -9.18985,-4.11475 -9.18985,-9.18983 0,-5.07509 4.11475,-9.18985 9.18985,-9.18985 5.07512,0 9.18985,4.11476 9.18985,9.18985 0,5.07508 -4.11473,9.18983 -9.18985,9.18983 z"
         id="path16"
         style="fill:#e2e3db;stroke-width:1.14873" /></clipPath><clipPath
       clipPathUnits="userSpaceOnUse"
       id="clipPath17"><path
         fill="#231f20"
         d="m 109.96292,115.42633 c -15.22527,0 -27.569545,12.34427 -27.569545,27.56956 0,5.99523 1.965478,11.4965 5.232471,16.00182 0.05859,0.10791 0.06779,0.22859 0.134403,0.33198 l 18.379701,27.56956 c 0.85235,1.27854 2.28827,2.04589 3.82297,2.04589 1.5347,0 2.97062,-0.76735 3.82299,-2.04589 l 18.3797,-27.56956 c 0.0678,-0.10345 0.0758,-0.224 0.13426,-0.33198 3.267,-4.50532 5.23248,-10.00659 5.23248,-16.00182 0,-15.22529 -12.34427,-27.56956 -27.56956,-27.56956 z m 0,36.75939 c -5.0751,0 -9.18985,-4.11475 -9.18985,-9.18983 0,-5.07509 4.11475,-9.18985 9.18985,-9.18985 5.07512,0 9.18985,4.11476 9.18985,9.18985 0,5.07508 -4.11473,9.18983 -9.18985,9.18983 z"
         id="path17"
         style="fill:#e2e3db;stroke-width:1.14873" /></clipPath></defs><g
     id="layer1"
     transform="translate(-68.944318,-96.811067)"><g
       id="g19"><g
         id="g18"
         transform="matrix(1.4078627,0,0,1.4078627,-47.054235,-65.693357)"><g
           id="g20"><ellipse
             style="fill:#ffcc00;stroke-width:1.72182;stroke-linecap:round;stroke-linejoin:round"
             id="path18"
             cx="107.75838"
             cy="198.36073"
             rx="35.055969"
             ry="18.520836"
             transform="matrix(0.71029654,0,0,0.71029654,33.42246,46.661764)" /><rect
             style="fill:#217821;stroke-width:3.44033;stroke-linecap:round;stroke-linejoin:round"
             id="rect8"
             width="59.570347"
             height="26.479605"
             x="80.016098"
             y="114.27303"
             ry="0"
             clip-path="url(#clipPath17)" /><rect
             style="fill:#aa4400;stroke-width:4.97869;stroke-linecap:round;stroke-linejoin:round"
             id="rect8-6"
             width="59.570347"
             height="55.455254"
             x="80.016098"
             y="143.57512"
             ry="0"
             clip-path="url(#clipPath16)" /></g></g></g></g></svg>
